<svg width="10" height="19" viewBox="0 0 10 19" fill="none" xmlns="http://www.w3.org/2000/svg">
<path d="M0.319295 10.1194H2.48929V18.6935C2.48929 18.8628 2.6322 19 2.80858 19H6.48788C6.66426 19 6.80718 18.8628 6.80718 18.6935V10.1598H9.30177C9.46397 10.1598 9.60043 10.043 9.61895 9.88834L9.99783 6.73176C10.0082 6.64491 9.97956 6.55794 9.91903 6.49279C9.85842 6.42758 9.7717 6.39025 9.68071 6.39025H6.80731V4.41155C6.80731 3.81508 7.14193 3.51261 7.80197 3.51261C7.89604 3.51261 9.68071 3.51261 9.68071 3.51261C9.85708 3.51261 10 3.37538 10 3.20616V0.308719C10 0.139435 9.85708 0.00226774 9.68071 0.00226774H7.09154C7.07328 0.00140968 7.03273 0 6.97296 0C6.52371 0 4.96216 0.0846419 3.72866 1.17377C2.36195 2.3807 2.55193 3.8258 2.59734 4.07636V6.39019H0.319295C0.142916 6.39019 0 6.52736 0 6.69664V9.81289C0 9.98217 0.142916 10.1194 0.319295 10.1194Z" fill="white"/>
</svg>
