<svg width="19" height="18" viewBox="0 0 19 18" fill="none" xmlns="http://www.w3.org/2000/svg">
<path d="M4.42271 5.7837H0.608429C0.439145 5.7837 0.301977 5.91399 0.301977 6.07466V17.709C0.301977 17.8697 0.439145 17.9999 0.608429 17.9999H4.42271C4.59199 17.9999 4.72916 17.8697 4.72916 17.709V6.07466C4.72916 5.91399 4.59199 5.7837 4.42271 5.7837Z" fill="white"/>
<path d="M2.51695 0C1.12909 0 0 1.07086 0 2.38712C0 3.70396 1.12909 4.77522 2.51695 4.77522C3.9037 4.77522 5.03187 3.7039 5.03187 2.38712C5.03194 1.07086 3.9037 0 2.51695 0Z" fill="white"/>
<path d="M14.1246 5.49454C12.5926 5.49454 11.4602 6.11982 10.7733 6.83029V6.07466C10.7733 5.91399 10.6361 5.7837 10.4669 5.7837H6.81401C6.64473 5.7837 6.50756 5.91399 6.50756 6.07466V17.709C6.50756 17.8697 6.64473 17.9999 6.81401 17.9999H10.62C10.7892 17.9999 10.9264 17.8697 10.9264 17.709V11.9527C10.9264 10.013 11.4813 9.25727 12.9055 9.25727C14.4565 9.25727 14.5797 10.4687 14.5797 12.0525V17.709C14.5797 17.8698 14.7169 18 14.8862 18H18.6935C18.8628 18 19 17.8698 19 17.709V11.3274C19 8.4431 18.4207 5.49454 14.1246 5.49454Z" fill="white"/>
</svg>
