<svg width="30" height="33" viewBox="0 0 30 33" fill="none" xmlns="http://www.w3.org/2000/svg">
<path d="M15 3.54683C8.0965 3.54683 2.5 9.39237 2.5 16.6032C2.5 23.814 8.0965 29.6596 15 29.6596C17.362 29.6596 19.5743 28.9742 21.4604 27.7826L25.2503 28.947C26.2089 29.2416 27.0997 28.3112 26.8177 27.3097L25.703 23.3512C26.8437 21.3811 27.5 19.0704 27.5 16.6032C27.5 9.39237 21.9036 3.54683 15 3.54683ZM15 6.15811C20.5229 6.15811 25 10.8345 25 16.6032C25 18.6621 24.431 20.5781 23.4488 22.1937C23.1654 22.66 23.0681 23.2479 23.2271 23.8126L23.7792 25.7731L21.9022 25.1966C21.3616 25.0305 20.7986 25.1321 20.3523 25.428C18.8054 26.454 16.9711 27.0483 15 27.0483C9.47712 27.0483 5 22.3719 5 16.6032C5 10.8345 9.47712 6.15811 15 6.15811ZM19.375 14.6448C18.3395 14.6448 17.5 15.5216 17.5 16.6032C17.5 17.6848 18.3395 18.5617 19.375 18.5617C20.4105 18.5617 21.25 17.6848 21.25 16.6032C21.25 15.5216 20.4105 14.6448 19.375 14.6448ZM10.625 14.6448C9.5895 14.6448 8.75 15.5216 8.75 16.6032C8.75 17.6848 9.5895 18.5617 10.625 18.5617C11.6605 18.5617 12.5 17.6848 12.5 16.6032C12.5 15.5216 11.6605 14.6448 10.625 14.6448Z" fill="white"/>
</svg>
