<svg width="18" height="15" viewBox="0 0 18 15" fill="none" xmlns="http://www.w3.org/2000/svg">
<path d="M17.9839 3.47146C17.9046 5.15952 16.6794 7.47302 14.3122 10.4033C11.8623 13.4694 9.79444 15 8.09499 15C7.03741 15 6.16153 14.0672 5.42854 12.2017L3.99012 7.06669C3.45176 5.20388 2.87684 4.27113 2.25917 4.27113C2.12416 4.27113 1.65219 4.54165 0.846627 5.08539L0 4.03415C0.888255 3.28156 1.76413 2.53221 2.62539 1.77962C3.80898 0.790599 4.70005 0.274985 5.29184 0.221422C6.69201 0.0915715 7.55326 1.01621 7.87898 2.98885C8.22775 5.11894 8.46796 6.44341 8.60578 6.96227C9.01025 8.72878 9.45466 9.61392 9.93845 9.61392C10.3137 9.61392 10.879 9.03879 11.6379 7.89178C12.3911 6.74477 12.7922 5.87423 12.8445 5.27368C12.9531 4.28736 12.5481 3.78852 11.6345 3.78852C11.2042 3.78852 10.7586 3.87671 10.3007 4.0704C11.1918 1.28078 12.8766 -0.0831854 15.3726 0.00392249C17.2273 0.0466649 18.0948 1.2045 17.9918 3.46443L17.9839 3.47146Z" fill="white"/>
</svg>
