<svg width="122" height="89" viewBox="0 0 122 89" fill="none" xmlns="http://www.w3.org/2000/svg">
<path opacity="0.2" d="M43.92 0H7.32C5.3793 0.00224923 3.51872 0.784368 2.14643 2.17478C0.774145 3.56518 0.00221991 5.45033 0 7.41667V46.9722C0.00221991 48.9386 0.774145 50.8237 2.14643 52.2141C3.51872 53.6045 5.3793 54.3866 7.32 54.3889H46.36V61.8056C46.3534 67.7046 44.0377 73.3601 39.9208 77.5313C35.8039 81.7026 30.2221 84.0489 24.4 84.0556C23.7529 84.0556 23.1322 84.316 22.6747 84.7797C22.2171 85.2433 21.96 85.8721 21.96 86.5278C21.96 87.1834 22.2171 87.8123 22.6747 88.2759C23.1322 88.7395 23.7529 89 24.4 89C31.5159 88.9919 38.3381 86.1241 43.3699 81.0259C48.4016 75.9278 51.232 69.0155 51.24 61.8056V7.41667C51.2378 5.45033 50.4659 3.56518 49.0936 2.17478C47.7213 0.784368 45.8607 0.00224923 43.92 0ZM46.36 49.4444H7.32C6.6731 49.4437 6.05291 49.183 5.59548 48.7195C5.13805 48.2561 4.88074 47.6277 4.88 46.9722V7.41667C4.88074 6.76122 5.13805 6.13284 5.59548 5.66937C6.05291 5.2059 6.6731 4.94519 7.32 4.94444H43.92C44.5669 4.94519 45.1871 5.2059 45.6445 5.66937C46.102 6.13284 46.3593 6.76122 46.36 7.41667V49.4444ZM114.68 0H78.08C76.1393 0.00224923 74.2787 0.784368 72.9064 2.17478C71.5341 3.56518 70.7622 5.45033 70.76 7.41667V46.9722C70.7622 48.9386 71.5341 50.8237 72.9064 52.2141C74.2787 53.6045 76.1393 54.3866 78.08 54.3889H117.12V61.8056C117.113 67.7046 114.798 73.3601 110.681 77.5313C106.564 81.7026 100.982 84.0489 95.16 84.0556C94.5129 84.0556 93.8922 84.316 93.4347 84.7797C92.9771 85.2433 92.72 85.8721 92.72 86.5278C92.72 87.1834 92.9771 87.8123 93.4347 88.2759C93.8922 88.7395 94.5129 89 95.16 89C102.276 88.9919 109.098 86.1241 114.13 81.0259C119.162 75.9278 121.992 69.0155 122 61.8056V7.41667C121.998 5.45033 121.226 3.56518 119.854 2.17478C118.481 0.784368 116.621 0.00224923 114.68 0ZM117.12 49.4444H78.08C77.4331 49.4437 76.8129 49.183 76.3555 48.7195C75.898 48.2561 75.6407 47.6277 75.64 46.9722V7.41667C75.6407 6.76122 75.898 6.13284 76.3555 5.66937C76.8129 5.2059 77.4331 4.94519 78.08 4.94444H114.68C115.327 4.94519 115.947 5.2059 116.405 5.66937C116.862 6.13284 117.119 6.76122 117.12 7.41667V49.4444Z" fill="white"/>
</svg>
