<svg width="22" height="15" viewBox="0 0 22 15" fill="none" xmlns="http://www.w3.org/2000/svg">
<path d="M21.1425 1.28764C20.3484 0.373064 18.8822 0 16.0821 0H5.91772C3.05353 0 1.5625 0.397129 0.771348 1.37084C0 2.32021 0 3.71903 0 5.65503V9.34504C0 13.0957 0.9152 15 5.91772 15H16.0821C18.5104 15 19.8559 14.6708 20.7264 13.8637C21.6191 13.036 22 11.6846 22 9.34504V5.65503C22 3.61335 21.9403 2.20628 21.1425 1.28764ZM14.1241 8.00947L9.50847 10.3465C9.40528 10.3988 9.29245 10.4247 9.17975 10.4247C9.05215 10.4247 8.92483 10.3914 8.81206 10.3253C8.59973 10.2006 8.47007 9.97765 8.47007 9.73715V5.07804C8.47007 4.83794 8.59937 4.61518 8.81128 4.49046C9.02326 4.36573 9.28691 4.35721 9.50684 4.46791L14.1224 6.7899C14.3573 6.90802 14.5047 7.14289 14.5051 7.39914C14.5054 7.65559 14.3585 7.8908 14.1241 8.00947Z" fill="white"/>
</svg>
